<svg xmlns="http://www.w3.org/2000/svg" version="1.1" xmlns:xlink="http://www.w3.org/1999/xlink" xmlns:svgjs="http://svgjs.dev/svgjs" width="1500" height="359" viewBox="0 0 1500 359"><g transform="matrix(1,0,0,1,-0.9090909090909918,0.8068952380952794)"><svg viewBox="0 0 396 95" data-background-color="#ffffff" preserveAspectRatio="xMidYMid meet" height="359" width="1500" xmlns="http://www.w3.org/2000/svg" xmlns:xlink="http://www.w3.org/1999/xlink"><g id="tight-bounds" transform="matrix(1,0,0,1,0.2400000000000091,-0.21352380952382077)"><svg viewBox="0 0 395.52 95.42704761904761" height="95.42704761904761" width="395.52"><g><svg viewBox="0 0 395.52 95.42704761904761" height="95.42704761904761" width="395.52"><g><svg viewBox="0 0 395.52 95.42704761904761" height="95.42704761904761" width="395.52"><g id="textblocktransform"><svg viewBox="0 0 395.52 95.42704761904761" height="95.42704761904761" width="395.52" id="textblock"><g><svg viewBox="0 0 395.52 95.42704761904761" height="95.42704761904761" width="395.52"><g transform="matrix(1,0,0,1,0,0)"><svg width="395.52" viewBox="0.75 -37.5 157.49 38" height="95.42704761904761" data-palette-color="#81063f"><path d="M16.4-17.7L16.4-17.7 13.75-17.7 13.75-0.95 17-0.95 17 0 0.75 0 0.75-0.95 4-0.95 4-34.05 0.75-34.05 0.75-35 15.85-35Q22.35-35 25.08-34.33 27.8-33.65 28.9-32.7L28.9-32.7Q31.3-30.75 31.3-26.5 31.3-22.25 29.2-20.43 27.1-18.6 22.8-18.25L22.8-18.25 22.8-18.1Q26.85-17.55 28.45-15.7 30.05-13.85 30.05-9.5L30.05-9.5 30.05-6.85Q30.05-4.25 30.33-3.35 30.6-2.45 31.5-2.45 32.4-2.45 32.93-3.28 33.45-4.1 33.9-6.75L33.9-6.75 34.75-6.65Q34.2-2.4 32.83-0.95 31.45 0.5 27.35 0.5 23.25 0.5 21.53-1.43 19.8-3.35 19.8-8.65L19.8-8.65 19.8-12.3Q19.8-15.1 19.07-16.4 18.35-17.7 16.4-17.7ZM15.4-34.05L13.75-34.05 13.75-18.65 15.35-18.65Q18.2-18.65 19.58-20.4 20.95-22.15 20.95-26.1L20.95-26.1 20.95-27.55Q20.95-31.5 19.63-32.77 18.3-34.05 15.4-34.05L15.4-34.05ZM48.3-11.75L48.3-11.75 49.75-11.75 49.75-15.6Q49.75-20.35 49.22-21.98 48.7-23.6 47.2-23.6L47.2-23.6Q46.3-23.6 45.57-23.13 44.85-22.65 44.85-21.83 44.85-21 45.15-20.15L45.15-20.15 46.4-20.15Q46.8-19.1 46.8-17.63 46.8-16.15 45.55-15.08 44.3-14 42.4-14L42.4-14Q38.1-14 38.1-18.15L38.1-18.15Q38.1-24.3 48.55-24.3L48.55-24.3Q54.5-24.3 56.77-22.28 59.05-20.25 59.05-14.85L59.05-14.85 59.05-4.7Q59.05-2.1 60.5-2.1L60.5-2.1Q62.2-2.1 62.5-7.25L62.5-7.25 63.25-7.2Q63.05-2.8 61.6-1.15 60.15 0.5 56.85 0.5L56.85 0.5Q50.85 0.5 49.95-3.2L49.95-3.2Q49.3-1.3 48-0.4 46.7 0.5 44.2 0.5L44.2 0.5Q36.8 0.5 36.8-5.55L36.8-5.55Q36.8-9.1 39.62-10.43 42.45-11.75 48.3-11.75ZM46.3-5.6Q46.3-3 46.57-2.25 46.85-1.5 47.62-1.5 48.4-1.5 49.07-2.78 49.75-4.05 49.75-6.3L49.75-6.3 49.75-10.95 49.4-10.95Q46.3-10.95 46.3-6.4L46.3-6.4 46.3-5.6ZM65.5 0.5L64.9 0.5 64.9-8.45 65.5-8.45Q66.8-4.1 69-2.35 71.2-0.6 74.5-0.6L74.5-0.6Q79.6-0.6 79.6-3.85L79.6-3.85Q79.6-5.25 78.35-5.95L78.35-5.95Q76.4-7.05 73.35-7.65L73.35-7.65Q69.95-8.55 67.65-10.05L67.65-10.05Q64.9-11.85 64.9-15.75 64.9-19.65 67.3-21.98 69.7-24.3 73.7-24.3L73.7-24.3Q76.15-24.3 78.75-23.15L78.75-23.15Q79.7-22.75 80.2-22.75 80.7-22.75 81.05-23.1 81.4-23.45 81.9-24.4L81.9-24.4 82.45-24.4 82.45-16.75 81.85-16.75Q79.3-23.25 73.95-23.25L73.95-23.25Q71.6-23.25 70.45-22.43 69.3-21.6 69.3-20.35L69.3-20.35Q69.3-19.6 69.65-19.18 70-18.75 70.2-18.55 70.4-18.35 70.85-18.13 71.3-17.9 71.6-17.78 71.9-17.65 72.52-17.45 73.15-17.25 73.45-17.2L73.45-17.2Q76.85-16.35 78.35-15.73 79.85-15.1 81.2-14.2L81.2-14.2Q83.95-12.3 83.95-8.08 83.95-3.85 81.45-1.68 78.95 0.5 74.6 0.5L74.6 0.5Q71.5 0.5 68.6-0.95L68.6-0.95Q68-1.35 67.65-1.35L67.65-1.35Q66.55-1.35 65.5 0.5L65.5 0.5ZM92.79-27.25Q90.14-27.25 89.02-28.6 87.89-29.95 87.89-31.95 87.89-33.95 89.12-35.25 90.34-36.55 92.84-36.55 95.34-36.55 96.64-35.38 97.94-34.2 97.94-32.02 97.94-29.85 96.69-28.55 95.44-27.25 92.79-27.25ZM85.24-22.9L85.24-23.8 97.49-23.8 97.49-0.9 100.29-0.9 100.29 0 85.44 0 85.44-0.9 88.19-0.9 88.19-22.9 85.24-22.9ZM131.54 0L117.64 0 117.64-0.9 119.94-0.9 114.29-12.5 113.34-12.25 113.34-0.9 115.64-0.9 115.64 0 101.29 0 101.29-0.9 104.04-0.9 104.04-36.6 101.09-36.6 101.09-37.5 113.34-37.5 113.34-13.25 114.14-13.55 125.39-22.9 120.69-22.9 120.69-23.8 130.54-23.8 130.54-22.9 127.04-22.9 121.09-17.85 129.74-0.9 131.54-0.9 131.54 0ZM143.29-11.75L143.29-11.75 144.74-11.75 144.74-15.6Q144.74-20.35 144.21-21.98 143.69-23.6 142.19-23.6L142.19-23.6Q141.29-23.6 140.56-23.13 139.84-22.65 139.84-21.83 139.84-21 140.14-20.15L140.14-20.15 141.39-20.15Q141.79-19.1 141.79-17.63 141.79-16.15 140.54-15.08 139.29-14 137.39-14L137.39-14Q133.09-14 133.09-18.15L133.09-18.15Q133.09-24.3 143.54-24.3L143.54-24.3Q149.49-24.3 151.76-22.28 154.04-20.25 154.04-14.85L154.04-14.85 154.04-4.7Q154.04-2.1 155.49-2.1L155.49-2.1Q157.19-2.1 157.49-7.25L157.49-7.25 158.24-7.2Q158.04-2.8 156.59-1.15 155.14 0.5 151.84 0.5L151.84 0.5Q145.84 0.5 144.94-3.2L144.94-3.2Q144.29-1.3 142.99-0.4 141.69 0.5 139.19 0.5L139.19 0.5Q131.79 0.5 131.79-5.55L131.79-5.55Q131.79-9.1 134.61-10.43 137.44-11.75 143.29-11.75ZM141.29-5.6Q141.29-3 141.56-2.25 141.84-1.5 142.61-1.5 143.39-1.5 144.06-2.78 144.74-4.05 144.74-6.3L144.74-6.3 144.74-10.95 144.39-10.95Q141.29-10.95 141.29-6.4L141.29-6.4 141.29-5.6Z" opacity="1" transform="matrix(1,0,0,1,0,0)" fill="#81063f" class="wordmark-text-0" data-fill-palette-color="primary" id="text-0"></path></svg></g></svg></g></svg></g></svg></g></svg></g><defs></defs></svg><rect width="395.52" height="95.42704761904761" fill="none" stroke="none" visibility="hidden"></rect></g></svg></g></svg>